<?xml version="1.0" encoding="UTF-8" standalone="no"?>
<!DOCTYPE svg PUBLIC "-//W3C//DTD SVG 1.1//EN"
 "http://www.w3.org/Graphics/SVG/1.1/DTD/svg11.dtd">
<!-- Generated by graphviz version 12.2.1 (20241206.2353)
 -->
<!-- Title: DepGraph Pages: 1 -->
<svg width="1739pt" height="535pt"
 viewBox="0.00 0.00 1738.93 534.80" xmlns="http://www.w3.org/2000/svg" xmlns:xlink="http://www.w3.org/1999/xlink">
<g id="graph0" class="graph" transform="scale(1 1) rotate(0) translate(14.4 520.4)">
<title>DepGraph</title>
<polygon fill="white" stroke="none" points="-14,14 -14,-520 1725,-520 1725,14 -14,14"/>
<!-- github.com/codemityio/goforma -->
<g id="node1" class="node">
<title>github.com/codemityio/goforma</title>
<polygon fill="#fcfcfc" stroke="#949494" points="733,-506 490,-506 490,-510 478,-510 478,-470 733,-470 733,-506"/>
<polyline fill="none" stroke="#949494" points="478,-506 490,-506"/>
<text text-anchor="middle" x="606" y="-483" font-family="Courier New" font-size="14.00">github.com/codemityio/goforma</text>
</g>
<!-- github.com/codemityio/goforma/cmd/badge -->
<g id="node2" class="node">
<title>github.com/codemityio/goforma/cmd/badge</title>
<polygon fill="#fcfcfc" stroke="#949494" points="614,-412 289,-412 289,-416 277,-416 277,-376 614,-376 614,-412"/>
<polyline fill="none" stroke="#949494" points="277,-412 289,-412"/>
<text text-anchor="middle" x="446" y="-389" font-family="Courier New" font-size="14.00">github.com/codemityio/goforma/cmd/badge</text>
</g>
<!-- github.com/codemityio/goforma&#45;&gt;github.com/codemityio/goforma/cmd/badge -->
<g id="edge1" class="edge">
<title>github.com/codemityio/goforma&#45;&gt;github.com/codemityio/goforma/cmd/badge</title>
<path fill="none" stroke="#a8a8a8" d="M546,-470C546,-470 546,-420 546,-420"/>
<polygon fill="#a8a8a8" stroke="#a8a8a8" points="548,-420 546,-414 544,-420 548,-420"/>
</g>
<!-- github.com/codemityio/goforma/cmd/code -->
<g id="node3" class="node">
<title>github.com/codemityio/goforma/cmd/code</title>
<polygon fill="#fcfcfc" stroke="#949494" points="1370,-412 1053,-412 1053,-416 1041,-416 1041,-376 1370,-376 1370,-412"/>
<polyline fill="none" stroke="#949494" points="1041,-412 1053,-412"/>
<text text-anchor="middle" x="1206" y="-389" font-family="Courier New" font-size="14.00">github.com/codemityio/goforma/cmd/code</text>
</g>
<!-- github.com/codemityio/goforma&#45;&gt;github.com/codemityio/goforma/cmd/code -->
<g id="edge2" class="edge">
<title>github.com/codemityio/goforma&#45;&gt;github.com/codemityio/goforma/cmd/code</title>
<path fill="none" stroke="#a8a8a8" d="M731,-470C731,-444 731,-400 731,-400 731,-400 1033,-400 1033,-400"/>
<polygon fill="#a8a8a8" stroke="#a8a8a8" points="1033,-402 1039,-400 1033,-398 1033,-402"/>
</g>
<!-- github.com/urfave/cli/v2 -->
<g id="node4" class="node">
<title>github.com/urfave/cli/v2</title>
<polygon fill="#d4d4d4" stroke="#a6a6a6" points="429,-318 161,-318 161,-322 149,-322 149,-282 429,-282 429,-318"/>
<polyline fill="none" stroke="#a6a6a6" points="149,-318 161,-318"/>
<text text-anchor="middle" x="289" y="-295" font-family="Courier New" font-size="14.00">github.com/urfave/cli/v2@v2.27.7</text>
</g>
<!-- github.com/codemityio/goforma&#45;&gt;github.com/urfave/cli/v2 -->
<g id="edge3" class="edge">
<title>github.com/codemityio/goforma&#45;&gt;github.com/urfave/cli/v2</title>
<path fill="none" stroke="#a8a8a8" d="M670,-470C670,-423 670,-306 670,-306 670,-306 436,-306 436,-306"/>
<polygon fill="#a8a8a8" stroke="#a8a8a8" points="436,-304 430,-306 436,-308 436,-304"/>
</g>
<!-- github.com/codemityio/goforma/cmd/badge&#45;&gt;github.com/urfave/cli/v2 -->
<g id="edge4" class="edge">
<title>github.com/codemityio/goforma/cmd/badge&#45;&gt;github.com/urfave/cli/v2</title>
<path fill="none" stroke="#a8a8a8" d="M353,-376C353,-376 353,-326 353,-326"/>
<polygon fill="#a8a8a8" stroke="#a8a8a8" points="355,-326 353,-320 350,-326 355,-326"/>
</g>
<!-- github.com/codemityio/goforma/cmd/code&#45;&gt;github.com/urfave/cli/v2 -->
<g id="edge9" class="edge">
<title>github.com/codemityio/goforma/cmd/code&#45;&gt;github.com/urfave/cli/v2</title>
<path fill="none" stroke="#a8a8a8" d="M1040,-388C902,-388 728,-388 728,-388 728,-388 728,-294 728,-294 728,-294 436,-294 436,-294"/>
<polygon fill="#a8a8a8" stroke="#a8a8a8" points="436,-292 430,-294 436,-296 436,-292"/>
</g>
<!-- github.com/codemityio/goforma/pkg/code/doc -->
<g id="node5" class="node">
<title>github.com/codemityio/goforma/pkg/code/doc</title>
<polygon fill="#fcfcfc" stroke="#949494" points="1660,-130 1309,-130 1309,-134 1297,-134 1297,-94 1660,-94 1660,-130"/>
<polyline fill="none" stroke="#949494" points="1297,-130 1309,-130"/>
<text text-anchor="middle" x="1479" y="-107" font-family="Courier New" font-size="14.00">github.com/codemityio/goforma/pkg/code/doc</text>
</g>
<!-- github.com/codemityio/goforma/cmd/code&#45;&gt;github.com/codemityio/goforma/pkg/code/doc -->
<g id="edge5" class="edge">
<title>github.com/codemityio/goforma/cmd/code&#45;&gt;github.com/codemityio/goforma/pkg/code/doc</title>
<path fill="none" stroke="#a8a8a8" d="M1310,-376C1310,-376 1310,-138 1310,-138"/>
<polygon fill="#a8a8a8" stroke="#a8a8a8" points="1312,-138 1310,-132 1308,-138 1312,-138"/>
</g>
<!-- github.com/codemityio/goforma/pkg/code/gen -->
<g id="node6" class="node">
<title>github.com/codemityio/goforma/pkg/code/gen</title>
<polygon fill="#fcfcfc" stroke="#949494" points="1178,-318 827,-318 827,-322 815,-322 815,-282 1178,-282 1178,-318"/>
<polyline fill="none" stroke="#949494" points="815,-318 827,-318"/>
<text text-anchor="middle" x="997" y="-295" font-family="Courier New" font-size="14.00">github.com/codemityio/goforma/pkg/code/gen</text>
</g>
<!-- github.com/codemityio/goforma/cmd/code&#45;&gt;github.com/codemityio/goforma/pkg/code/gen -->
<g id="edge6" class="edge">
<title>github.com/codemityio/goforma/cmd/code&#45;&gt;github.com/codemityio/goforma/pkg/code/gen</title>
<path fill="none" stroke="#a8a8a8" d="M1109,-376C1109,-376 1109,-326 1109,-326"/>
<polygon fill="#a8a8a8" stroke="#a8a8a8" points="1111,-326 1109,-320 1107,-326 1111,-326"/>
</g>
<!-- github.com/codemityio/goforma/pkg/code/imports -->
<g id="node7" class="node">
<title>github.com/codemityio/goforma/pkg/code/imports</title>
<polygon fill="#fcfcfc" stroke="#949494" points="1222,-224 839,-224 839,-228 827,-228 827,-188 1222,-188 1222,-224"/>
<polyline fill="none" stroke="#949494" points="827,-224 839,-224"/>
<text text-anchor="middle" x="1025" y="-201" font-family="Courier New" font-size="14.00">github.com/codemityio/goforma/pkg/code/imports</text>
</g>
<!-- github.com/codemityio/goforma/cmd/code&#45;&gt;github.com/codemityio/goforma/pkg/code/imports -->
<g id="edge7" class="edge">
<title>github.com/codemityio/goforma/cmd/code&#45;&gt;github.com/codemityio/goforma/pkg/code/imports</title>
<path fill="none" stroke="#a8a8a8" d="M1200,-376C1200,-376 1200,-232 1200,-232"/>
<polygon fill="#a8a8a8" stroke="#a8a8a8" points="1202,-232 1200,-226 1198,-232 1202,-232"/>
</g>
<!-- github.com/codemityio/goforma/pkg/code/parser -->
<g id="node8" class="node">
<title>github.com/codemityio/goforma/pkg/code/parser</title>
<polygon fill="#fcfcfc" stroke="#949494" points="1710,-224 1335,-224 1335,-228 1323,-228 1323,-188 1710,-188 1710,-224"/>
<polyline fill="none" stroke="#949494" points="1323,-224 1335,-224"/>
<text text-anchor="middle" x="1517" y="-201" font-family="Courier New" font-size="14.00">github.com/codemityio/goforma/pkg/code/parser</text>
</g>
<!-- github.com/codemityio/goforma/cmd/code&#45;&gt;github.com/codemityio/goforma/pkg/code/parser -->
<g id="edge8" class="edge">
<title>github.com/codemityio/goforma/cmd/code&#45;&gt;github.com/codemityio/goforma/pkg/code/parser</title>
<path fill="none" stroke="#a8a8a8" d="M1354,-376C1354,-376 1354,-232 1354,-232"/>
<polygon fill="#a8a8a8" stroke="#a8a8a8" points="1357,-232 1354,-226 1352,-232 1357,-232"/>
</g>
<!-- github.com/cpuguy83/go&#45;md2man/v2/md2man -->
<g id="node10" class="node">
<title>github.com/cpuguy83/go&#45;md2man/v2/md2man</title>
<polygon fill="#d4d4d4" stroke="#a6a6a6" points="725,-224 342,-224 342,-228 330,-228 330,-188 725,-188 725,-224"/>
<polyline fill="none" stroke="#a6a6a6" points="330,-224 342,-224"/>
<text text-anchor="middle" x="528" y="-201" font-family="Courier New" font-size="14.00">github.com/cpuguy83/go&#45;md2man/v2/md2man@v2.0.7</text>
</g>
<!-- github.com/urfave/cli/v2&#45;&gt;github.com/cpuguy83/go&#45;md2man/v2/md2man -->
<g id="edge16" class="edge">
<title>github.com/urfave/cli/v2&#45;&gt;github.com/cpuguy83/go&#45;md2man/v2/md2man</title>
<path fill="none" stroke="#a8a8a8" d="M379,-282C379,-282 379,-232 379,-232"/>
<polygon fill="#a8a8a8" stroke="#a8a8a8" points="381,-232 379,-226 377,-232 381,-232"/>
</g>
<!-- github.com/xrash/smetrics -->
<g id="node12" class="node">
<title>github.com/xrash/smetrics</title>
<polygon fill="#d4d4d4" stroke="#a6a6a6" points="511,-36 12,-36 12,-40 0,-40 0,0 511,0 511,-36"/>
<polyline fill="none" stroke="#a6a6a6" points="0,-36 12,-36"/>
<text text-anchor="middle" x="256" y="-13" font-family="Courier New" font-size="14.00">github.com/xrash/smetrics@v0.0.0&#45;20240521201337&#45;686a1a2994c1</text>
</g>
<!-- github.com/urfave/cli/v2&#45;&gt;github.com/xrash/smetrics -->
<g id="edge17" class="edge">
<title>github.com/urfave/cli/v2&#45;&gt;github.com/xrash/smetrics</title>
<path fill="none" stroke="#a8a8a8" d="M239,-282C239,-282 239,-44 239,-44"/>
<polygon fill="#a8a8a8" stroke="#a8a8a8" points="241,-44 239,-38 237,-44 241,-44"/>
</g>
<!-- github.com/codemityio/goforma/pkg/code/gen&#45;&gt;github.com/codemityio/goforma/pkg/code/imports -->
<g id="edge10" class="edge">
<title>github.com/codemityio/goforma/pkg/code/gen&#45;&gt;github.com/codemityio/goforma/pkg/code/imports</title>
<path fill="none" stroke="#a8a8a8" d="M1002,-282C1002,-282 1002,-232 1002,-232"/>
<polygon fill="#a8a8a8" stroke="#a8a8a8" points="1004,-232 1002,-226 1000,-232 1004,-232"/>
</g>
<!-- github.com/codemityio/goforma/pkg/code/gen&#45;&gt;github.com/codemityio/goforma/pkg/code/parser -->
<g id="edge11" class="edge">
<title>github.com/codemityio/goforma/pkg/code/gen&#45;&gt;github.com/codemityio/goforma/pkg/code/parser</title>
<path fill="none" stroke="#a8a8a8" d="M1178,-300C1260,-300 1339,-300 1339,-300 1339,-300 1339,-232 1339,-232"/>
<polygon fill="#a8a8a8" stroke="#a8a8a8" points="1341,-232 1339,-226 1337,-232 1341,-232"/>
</g>
<!-- golang.org/x/tools/go/packages -->
<g id="node9" class="node">
<title>golang.org/x/tools/go/packages</title>
<polygon fill="#d4d4d4" stroke="#a6a6a6" points="1159,-130 842,-130 842,-134 830,-134 830,-94 1159,-94 1159,-130"/>
<polyline fill="none" stroke="#a6a6a6" points="830,-130 842,-130"/>
<text text-anchor="middle" x="995" y="-107" font-family="Courier New" font-size="14.00">golang.org/x/tools/go/packages@v0.49.0</text>
</g>
<!-- github.com/codemityio/goforma/pkg/code/imports&#45;&gt;golang.org/x/tools/go/packages -->
<g id="edge12" class="edge">
<title>github.com/codemityio/goforma/pkg/code/imports&#45;&gt;golang.org/x/tools/go/packages</title>
<path fill="none" stroke="#a8a8a8" d="M995,-188C995,-188 995,-138 995,-138"/>
<polygon fill="#a8a8a8" stroke="#a8a8a8" points="997,-138 995,-132 992,-138 997,-138"/>
</g>
<!-- github.com/codemityio/goforma/pkg/code/parser&#45;&gt;github.com/codemityio/goforma/pkg/code/doc -->
<g id="edge13" class="edge">
<title>github.com/codemityio/goforma/pkg/code/parser&#45;&gt;github.com/codemityio/goforma/pkg/code/doc</title>
<path fill="none" stroke="#a8a8a8" d="M1491,-188C1491,-188 1491,-138 1491,-138"/>
<polygon fill="#a8a8a8" stroke="#a8a8a8" points="1493,-138 1491,-132 1489,-138 1493,-138"/>
</g>
<!-- github.com/codemityio/goforma/pkg/code/parser&#45;&gt;golang.org/x/tools/go/packages -->
<g id="edge14" class="edge">
<title>github.com/codemityio/goforma/pkg/code/parser&#45;&gt;golang.org/x/tools/go/packages</title>
<path fill="none" stroke="#a8a8a8" d="M1323,-206C1286,-206 1260,-206 1260,-206 1260,-206 1260,-118 1260,-118 1260,-118 1167,-118 1167,-118"/>
<polygon fill="#a8a8a8" stroke="#a8a8a8" points="1167,-116 1161,-118 1167,-120 1167,-116"/>
</g>
<!-- golang.org/x/sync/errgroup -->
<g id="node13" class="node">
<title>golang.org/x/sync/errgroup</title>
<polygon fill="#d4d4d4" stroke="#a6a6a6" points="1456,-36 1171,-36 1171,-40 1159,-40 1159,0 1456,0 1456,-36"/>
<polyline fill="none" stroke="#a6a6a6" points="1159,-36 1171,-36"/>
<text text-anchor="middle" x="1308" y="-13" font-family="Courier New" font-size="14.00">golang.org/x/sync/errgroup@v0.22.0</text>
</g>
<!-- golang.org/x/tools/go/packages&#45;&gt;golang.org/x/sync/errgroup -->
<g id="edge18" class="edge">
<title>golang.org/x/tools/go/packages&#45;&gt;golang.org/x/sync/errgroup</title>
<path fill="none" stroke="#a8a8a8" d="M1160,-106C1178,-106 1191,-106 1191,-106 1191,-106 1191,-44 1191,-44"/>
<polygon fill="#a8a8a8" stroke="#a8a8a8" points="1193,-44 1191,-38 1189,-44 1193,-44"/>
</g>
<!-- golang.org/x/tools/go/gcexportdata -->
<g id="node14" class="node">
<title>golang.org/x/tools/go/gcexportdata</title>
<polygon fill="#d4d4d4" stroke="#a6a6a6" points="1058,-36 707,-36 707,-40 695,-40 695,0 1058,0 1058,-36"/>
<polyline fill="none" stroke="#a6a6a6" points="695,-36 707,-36"/>
<text text-anchor="middle" x="877" y="-13" font-family="Courier New" font-size="14.00">golang.org/x/tools/go/gcexportdata@v0.49.0</text>
</g>
<!-- golang.org/x/tools/go/packages&#45;&gt;golang.org/x/tools/go/gcexportdata -->
<g id="edge19" class="edge">
<title>golang.org/x/tools/go/packages&#45;&gt;golang.org/x/tools/go/gcexportdata</title>
<path fill="none" stroke="#a8a8a8" d="M944,-94C944,-94 944,-44 944,-44"/>
<polygon fill="#a8a8a8" stroke="#a8a8a8" points="946,-44 944,-38 942,-44 946,-44"/>
</g>
<!-- github.com/russross/blackfriday/v2 -->
<g id="node11" class="node">
<title>github.com/russross/blackfriday/v2</title>
<polygon fill="#d4d4d4" stroke="#a6a6a6" points="699,-130 356,-130 356,-134 344,-134 344,-94 699,-94 699,-130"/>
<polyline fill="none" stroke="#a6a6a6" points="344,-130 356,-130"/>
<text text-anchor="middle" x="522" y="-107" font-family="Courier New" font-size="14.00">github.com/russross/blackfriday/v2@v2.1.0</text>
</g>
<!-- github.com/cpuguy83/go&#45;md2man/v2/md2man&#45;&gt;github.com/russross/blackfriday/v2 -->
<g id="edge15" class="edge">
<title>github.com/cpuguy83/go&#45;md2man/v2/md2man&#45;&gt;github.com/russross/blackfriday/v2</title>
<path fill="none" stroke="#a8a8a8" d="M522,-188C522,-188 522,-138 522,-138"/>
<polygon fill="#a8a8a8" stroke="#a8a8a8" points="524,-138 522,-132 519,-138 524,-138"/>
</g>
</g>
</svg>
